# xmcd CD database file
#
# Track frame offsets:
#	150
#	19667
#	37587
#	55370
#	75578
#	93174
#	111153
#	127754
#	148251
#	170155
#
# Disc length: 2536 seconds
#
# Revision: 0
# Processed by: cddbd v1.5.2PL0 Copyright (c) Steve Scherf et al.
# Submitted via: jetAudio 7
#
DISCID=7809e60a
DTITLE=Sagiv Cohen - Kulshi Kalam-Album
DYEAR=1900
DGENRE=Unknown Genre
TTITLE0=Yoreket Esh
TTITLE1=Shuvi
TTITLE2=Yesh Li Oti
TTITLE3=Kulshi Kalam
TTITLE4=Yesh Kan Bama
TTITLE5=Hasimcha Sheli
TTITLE6=Olam
TTITLE7=Eich Ze Shecochav
TTITLE8=Birkat Haderech
TTITLE9=Od Nipagesh
EXTD=
EXTT0=
EXTT1=
EXTT2=
EXTT3=
EXTT4=
EXTT5=
EXTT6=
EXTT7=
EXTT8=
EXTT9=
PLAYORDER=
